# Blender 4.0.2
# www.blender.org
o building_residential_03
v 5.061319 0.000000 1.689419
v 5.061318 2.251286 3.378851
v -5.061317 3.570249 1.689419
v 5.061319 2.251286 -3.378876
v -5.061318 2.251286 3.378851
v -5.061317 2.251286 -3.378876
v 5.061319 3.570249 1.689419
v 5.061319 4.889213 -0.000012
v -5.061317 4.889213 -0.000012
v 5.061318 0.000000 3.378851
v 5.061319 0.000000 -3.378875
v 5.061319 0.000000 -0.000012
v -7.569454 3.570249 1.689419
v -7.569454 2.251286 3.378851
v -5.061317 2.251286 -0.284897
v -7.569454 2.251286 -0.284897
v -7.569454 0.000000 1.689419
v -5.061318 0.000000 3.378851
v -7.569454 0.000000 3.378851
v -5.061317 0.000000 -3.378876
v -7.569454 0.000000 -0.284897
v -5.061317 0.000000 -0.284897
v 5.061318 3.570249 -1.689444
v -5.061317 3.570249 -1.689444
v 5.061318 0.000000 -1.689444
v -5.061317 0.000000 -1.689431
vn -0.0000 0.7882 -0.6154
vn -0.0000 0.8315 -0.5555
vn -0.0000 0.7882 0.6154
vn 1.0000 -0.0000 -0.0000
vn -0.0000 -0.0000 1.0000
vn -0.0000 -0.0000 -1.0000
vn -1.0000 -0.0000 -0.0000
vt 0.603386 0.403452
vt 0.009766 0.403452
vt 0.009766 0.277762
vt 0.603386 0.277762
vt 0.990214 0.837030
vt 0.843131 0.837030
vt 0.843131 0.697791
vt 0.990214 0.697791
vt 0.156851 0.009765
vt 0.156851 0.135455
vt 0.009767 0.135455
vt 0.009767 0.009765
vt 0.750469 0.135455
vt 0.750469 0.261145
vt 0.156851 0.261145
vt 0.108843 0.903133
vt 0.009771 0.825785
vt 0.009770 0.693764
vt 0.108843 0.693764
vt 0.306989 0.903133
vt 0.207916 0.980480
vt 0.207916 0.693764
vt 0.306989 0.693764
vt 0.750469 0.009765
vt 0.750480 0.677791
vt 0.156849 0.677791
vt 0.156849 0.545767
vt 0.750480 0.545767
vt 0.009761 0.677791
vt 0.009761 0.545767
vt 0.989877 0.987788
vt 0.396249 0.987788
vt 0.396249 0.855764
vt 0.989877 0.855764
vt 0.880899 0.219134
vt 0.765119 0.141785
vt 0.765119 0.009762
vt 0.880899 0.009762
vt 0.979973 0.141785
vt 0.979973 0.009762
vt 0.717110 0.487136
vt 0.618036 0.409788
vt 0.618036 0.277765
vt 0.717111 0.277765
vt 0.843131 0.565771
vt 0.990214 0.565771
vt 0.406062 0.825785
vt 0.406062 0.693764
vt 0.603386 0.529143
vt 0.009766 0.529143
vt 0.816184 0.564485
vt 0.799477 0.409788
vt 0.915258 0.487136
vt 0.799477 0.277765
s 1
f 24/1/1 23/2/1 4/3/1 6/4/1
f 13/5/2 3/6/2 15/7/2 16/8/2
f 5/9/3 3/10/3 13/11/3 14/12/3
f 3/10/3 7/13/3 8/14/3 9/15/3
f 7/16/4 2/17/4 10/18/4 1/19/4
f 23/20/4 8/21/4 12/22/4 25/23/4
f 5/9/3 2/24/3 7/13/3 3/10/3
f 8/21/4 7/16/4 1/19/4 12/22/4
f 2/25/5 5/26/5 18/27/5 10/28/5
f 5/26/5 14/29/5 19/30/5 18/27/5
f 6/31/6 4/32/6 11/33/6 20/34/6
f 13/35/7 16/36/7 21/37/7 17/38/7
f 14/39/7 13/35/7 17/38/7 19/40/7
f 24/41/7 6/42/7 20/43/7 26/44/7
f 16/8/6 15/7/6 22/45/6 21/46/6
f 4/47/4 23/20/4 25/23/4 11/48/4
f 9/49/1 8/50/1 23/2/1 24/1/1
f 9/51/7 24/41/7 15/52/7 3/53/7
f 24/41/7 26/44/7 22/54/7 15/52/7
